<svg xmlns:dc="http://purl.org/dc/elements/1.1/" xmlns:cc="http://creativecommons.org/ns#" xmlns:rdf="http://www.w3.org/1999/02/22-rdf-syntax-ns#" xmlns:svg="http://www.w3.org/2000/svg" xmlns="http://www.w3.org/2000/svg" xmlns:sodipodi="http://sodipodi.sourceforge.net/DTD/sodipodi-0.dtd" xmlns:inkscape="http://www.inkscape.org/namespaces/inkscape" version="1.1" x="0px" y="0px" viewBox="0 0 100 125"><g transform="translate(0,-952.36218)"><path style="font-size:medium;font-style:normal;font-variant:normal;font-weight:normal;font-stretch:normal;text-indent:0;text-align:start;text-decoration:none;line-height:normal;letter-spacing:normal;word-spacing:normal;text-transform:none;direction:ltr;block-progression:tb;writing-mode:lr-tb;text-anchor:start;baseline-shift:baseline;opacity:1;color:#000000;fill:#000000;fill-opacity:1;stroke:none;stroke-width:6;marker:none;visibility:visible;display:inline;overflow:visible;enable-background:accumulate;font-family:Sans;-inkscape-font-specification:Sans" d="m 24,9 c -1.274712,0 -2.537344,0.9825624 -2.875,2.1875 L 17.75,23 8,23 c -1.6192963,0 -3,1.735361 -3,3 l 0,62 c 1.571e-4,1.570753 1.4292466,2.999843 3,3 l 84,0 c 1.570753,-1.57e-4 2.999843,-1.429247 3,-3 l 0,-51 c -1.57e-4,-1.570753 -1.429247,-2.999843 -3,-3 l -3.15625,0 1.0625,-4.28125 c 0.37717,-1.505119 -0.627438,-3.218862 -2.125,-3.625 l -63,-17 C 24.486273,9.0166982 24.304753,9 24,9 z M 26.0625,15.6875 83.375,31.125 82.65625,34 52.125,34 39.9375,23.6875 C 39.398347,23.241908 38.699429,22.993905 38,23 L 23.96875,23 z M 11,29 36.90625,29 49.0625,39.28125 C 49.597267,39.737944 50.296766,39.997436 51,40 l 38,0 0,45 -78,0 z" transform="translate(0,952.36218)"/></g></svg>
